# xmcd
#
# Track frame offsets: 
#        150
#        14687
#        43219
#        65279
#        78429
#        94661
#        117186
#        131386
#        149193
#        167225
#        186232
#        207062
#        227584
#        242706
#        256388
#
# Disc length: 3698 seconds
#
# Revision: 0
# Processed by: cddbd v1.5.2PL0 Copyright (c) Steve Scherf et al.
# Submitted via: ExactAudioCopy v0.99pb5
#
DISCID=d50e700f
DTITLE=Sister Swing - Riff Raff And Ruffles
DYEAR=2005
DGENRE=A Cappella
TTITLE0=That's How Rhythm Was Born
TTITLE1=Too Darn Hot - Heat Wave
TTITLE2=House Is Haunted
TTITLE3=Elmer's Tune
TTITLE4=Well Alright
TTITLE5=Mood Indigo
TTITLE6=Lulu's Back In Town
TTITLE7=Night And Day
TTITLE8=Mr. 5 X 5
TTITLE9=42nd Street
TTITLE10=Jump Jive And Wail
TTITLE11=White Lies
TTITLE12=A Train
TTITLE13=Shoo Shoo Baby
TTITLE14=Sentimental Journey
EXTD=
EXTT0=
EXTT1=
EXTT2=
EXTT3=
EXTT4=
EXTT5=
EXTT6=
EXTT7=
EXTT8=
EXTT9=
EXTT10=
EXTT11=
EXTT12=
EXTT13=
EXTT14=
PLAYORDER=
